<svg width="46" height="32" viewBox="0 0 46 32" fill="#fff" xmlns="http://www.w3.org/2000/svg">
<path d="M23 17.708L18.8545 21.8535C18.7568 21.9512 18.6396 22 18.5029 22C18.3597 22 18.2393 21.9528 18.1416 21.8584C18.0472 21.7607 18 21.6403 18 21.4971C18 21.3604 18.0488 21.2432 18.1465 21.1455L22.292 17L18.1465 12.8545C18.0488 12.7568 18 12.638 18 12.498C18 12.4297 18.013 12.3646 18.0391 12.3027C18.0651 12.2409 18.1009 12.1888 18.1465 12.1465C18.1921 12.1009 18.2458 12.0651 18.3076 12.0391C18.3695 12.013 18.4346 12 18.5029 12C18.6396 12 18.7568 12.0488 18.8545 12.1465L23 16.292L27.1455 12.1465C27.2432 12.0488 27.362 12 27.502 12C27.5703 12 27.6338 12.013 27.6924 12.0391C27.7542 12.0651 27.8079 12.1009 27.8535 12.1465C27.8991 12.1921 27.9349 12.2458 27.9609 12.3076C27.987 12.3662 28 12.4297 28 12.498C28 12.638 27.9512 12.7568 27.8535 12.8545L23.708 17L27.8535 21.1455C27.9512 21.2432 28 21.3604 28 21.4971C28 21.5654 27.987 21.6305 27.9609 21.6924C27.9349 21.7542 27.8991 21.8079 27.8535 21.8535C27.8112 21.8991 27.7591 21.9349 27.6973 21.9609C27.6354 21.987 27.5703 22 27.502 22C27.362 22 27.2432 21.9512 27.1455 21.8535L23 17.708Z" fill="white"/>
</svg>
