<svg width="46" height="32" viewBox="0 0 46 32" fill="#fff" xmlns="http://www.w3.org/2000/svg">
<path d="M18.498 16C18.4297 16 18.3646 15.987 18.3027 15.9609C18.2441 15.9349 18.1921 15.8991 18.1465 15.8535C18.1009 15.8079 18.0651 15.7559 18.0391 15.6973C18.013 15.6354 18 15.5703 18 15.502C18 15.4336 18.013 15.3701 18.0391 15.3115C18.0651 15.2497 18.1009 15.196 18.1465 15.1504C18.1921 15.1016 18.2441 15.0641 18.3027 15.0381C18.3646 15.012 18.4297 14.999 18.498 14.999H27.502C27.5703 14.999 27.6338 15.012 27.6924 15.0381C27.7542 15.0641 27.8079 15.1016 27.8535 15.1504C27.8991 15.196 27.9349 15.2497 27.9609 15.3115C27.987 15.3701 28 15.4336 28 15.502C28 15.5703 27.987 15.6354 27.9609 15.6973C27.9349 15.7559 27.8991 15.8079 27.8535 15.8535C27.8079 15.8991 27.7542 15.9349 27.6924 15.9609C27.6338 15.987 27.5703 16 27.502 16H18.498Z" fill="#fff"/>
<path d="M18.3027 15.9609L17.8966 16.8747L17.9056 16.8788L17.9147 16.8826L18.3027 15.9609ZM18.0391 15.6973L17.1174 16.0853L17.1212 16.0944L17.1253 16.1034L18.0391 15.6973ZM18.0391 15.3115L18.9529 15.7177L18.9569 15.7087L18.9607 15.6996L18.0391 15.3115ZM18.1465 15.1504L18.8536 15.8575L18.8658 15.8453L18.8775 15.8327L18.1465 15.1504ZM18.3027 15.0381L17.9147 14.1165L17.9056 14.1203L17.8966 14.1243L18.3027 15.0381ZM27.6924 15.0381L27.2862 15.9519L27.2952 15.9559L27.3043 15.9597L27.6924 15.0381ZM27.8535 15.1504L27.1225 15.8327L27.1342 15.8453L27.1464 15.8575L27.8535 15.1504ZM27.9609 15.3115L27.0393 15.6996L27.0431 15.7087L27.0471 15.7177L27.9609 15.3115ZM27.9609 15.6973L28.8747 16.1034L28.8788 16.0944L28.8826 16.0853L27.9609 15.6973ZM27.6924 15.9609L27.3043 15.0393L27.2952 15.0431L27.2862 15.0471L27.6924 15.9609ZM18.498 15C18.5604 15 18.6275 15.0126 18.6908 15.0393L17.9147 16.8826C18.1017 16.9613 18.299 17 18.498 17V15ZM18.7089 15.0471C18.763 15.0712 18.8128 15.1057 18.8536 15.1464L17.4394 16.5606C17.5713 16.6925 17.7253 16.7986 17.8966 16.8747L18.7089 15.0471ZM18.8536 15.1464C18.8943 15.1872 18.9288 15.237 18.9529 15.2911L17.1253 16.1034C17.2014 16.2747 17.3075 16.4287 17.4394 16.5606L18.8536 15.1464ZM18.9607 15.3092C18.9874 15.3725 19 15.4396 19 15.502H17C17 15.701 17.0387 15.8983 17.1174 16.0853L18.9607 15.3092ZM19 15.502C19 15.5641 18.9874 15.6401 18.9529 15.7177L17.1253 14.9054C17.0387 15.1002 17 15.3031 17 15.502H19ZM18.9607 15.6996C18.9386 15.752 18.9033 15.8078 18.8536 15.8575L17.4394 14.4433C17.2986 14.5841 17.1916 14.7474 17.1174 14.9235L18.9607 15.6996ZM18.8775 15.8327C18.8354 15.8779 18.7781 15.9211 18.7089 15.9519L17.8966 14.1243C17.7101 14.2071 17.5488 14.3252 17.4154 14.4681L18.8775 15.8327ZM18.6908 15.9597C18.6275 15.9864 18.5604 15.999 18.498 15.999V13.999C18.299 13.999 18.1017 14.0377 17.9147 14.1165L18.6908 15.9597ZM18.498 15.999H27.502V13.999H18.498V15.999ZM27.502 15.999C27.4398 15.999 27.3638 15.9864 27.2862 15.9519L28.0985 14.1243C27.9037 14.0377 27.7008 13.999 27.502 13.999V15.999ZM27.3043 15.9597C27.2369 15.9313 27.1735 15.8874 27.1225 15.8327L28.5846 14.4681C28.4423 14.3157 28.2716 14.1969 28.0804 14.1165L27.3043 15.9597ZM27.1464 15.8575C27.0967 15.8078 27.0614 15.752 27.0393 15.6996L28.8826 14.9235C28.8084 14.7474 28.7014 14.5841 28.5606 14.4433L27.1464 15.8575ZM27.0471 15.7177C27.0126 15.6401 27 15.5641 27 15.502H29C29 15.3031 28.9613 15.1002 28.8747 14.9054L27.0471 15.7177ZM27 15.502C27 15.4396 27.0126 15.3725 27.0393 15.3092L28.8826 16.0853C28.9613 15.8983 29 15.701 29 15.502H27ZM27.0471 15.2911C27.0712 15.237 27.1057 15.1872 27.1464 15.1464L28.5606 16.5606C28.6925 16.4287 28.7986 16.2747 28.8747 16.1034L27.0471 15.2911ZM27.1464 15.1464C27.1961 15.0967 27.252 15.0614 27.3043 15.0393L28.0804 16.8826C28.2565 16.8084 28.4198 16.7014 28.5606 16.5606L27.1464 15.1464ZM27.2862 15.0471C27.3638 15.0126 27.4398 15 27.502 15V17C27.7008 17 27.9037 16.9613 28.0985 16.8747L27.2862 15.0471ZM27.502 15H18.498V17H27.502V15Z" fill="white"/>
</svg>
