
<svg width="20" height="20" viewBox="0 0 20 20" fill="none" xmlns="http://www.w3.org/2000/svg">
<path d="M15.4167 17.9167H4.58333C4.12292 17.9167 3.75 17.5438 3.75 17.0834V12.0834H16.25V17.0834C16.25 17.5438 15.8771 17.9167 15.4167 17.9167Z" fill="url(#paint0_linear_12_422)"/>
<path d="M15.4167 16.6667H4.58333C4.12292 16.6667 3.75 16.2937 3.75 15.8333V11.25H16.25V15.8333C16.25 16.2937 15.8771 16.6667 15.4167 16.6667Z" fill="url(#paint1_linear_12_422)"/>
<path d="M15.4167 15.4167H4.58333C4.12292 15.4167 3.75 15.0437 3.75 14.5833V3.33333C3.75 2.87292 4.12292 2.5 4.58333 2.5H15.4167C15.8771 2.5 16.25 2.87292 16.25 3.33333V14.5833C16.25 15.0437 15.8771 15.4167 15.4167 15.4167Z" fill="url(#paint2_linear_12_422)"/>
<path d="M14.375 7.91663H5.62501C5.51001 7.91663 5.41667 7.82329 5.41667 7.70829V6.87496C5.41667 6.75996 5.51001 6.66663 5.62501 6.66663H14.375C14.49 6.66663 14.5833 6.75996 14.5833 6.87496V7.70829C14.5833 7.82329 14.49 7.91663 14.375 7.91663Z" fill="#057093"/>
<path d="M14.375 10.4166H5.62501C5.51001 10.4166 5.41667 10.3233 5.41667 10.2083V9.37496C5.41667 9.25996 5.51001 9.16663 5.62501 9.16663H14.375C14.49 9.16663 14.5833 9.25996 14.5833 9.37496V10.2083C14.5833 10.3233 14.49 10.4166 14.375 10.4166Z" fill="#057093"/>
<path d="M14.375 12.9166H5.62501C5.51001 12.9166 5.41667 12.8233 5.41667 12.7083V11.875C5.41667 11.76 5.51001 11.6666 5.62501 11.6666H14.375C14.49 11.6666 14.5833 11.76 14.5833 11.875V12.7083C14.5833 12.8233 14.49 12.9166 14.375 12.9166Z" fill="#057093"/>
<path d="M14.375 3.74996C14.03 3.74996 13.75 3.46996 13.75 3.12496V2.29163C13.75 1.94663 14.03 1.66663 14.375 1.66663C14.72 1.66663 15 1.94663 15 2.29163V3.12496C15 3.46996 14.72 3.74996 14.375 3.74996Z" fill="#057093"/>
<path d="M11.4583 3.74996C11.1133 3.74996 10.8333 3.46996 10.8333 3.12496V2.29163C10.8333 1.94663 11.1133 1.66663 11.4583 1.66663C11.8033 1.66663 12.0833 1.94663 12.0833 2.29163V3.12496C12.0833 3.46996 11.8033 3.74996 11.4583 3.74996Z" fill="#057093"/>
<path d="M8.54167 3.74996C8.19667 3.74996 7.91667 3.46996 7.91667 3.12496V2.29163C7.91667 1.94663 8.19667 1.66663 8.54167 1.66663C8.88667 1.66663 9.16667 1.94663 9.16667 2.29163V3.12496C9.16667 3.46996 8.88667 3.74996 8.54167 3.74996Z" fill="#057093"/>
<path d="M5.625 3.74996C5.28 3.74996 5 3.46996 5 3.12496V2.29163C5 1.94663 5.28 1.66663 5.625 1.66663C5.97 1.66663 6.25 1.94663 6.25 2.29163V3.12496C6.25 3.46996 5.97 3.74996 5.625 3.74996Z" fill="#057093"/>
<defs>
<linearGradient id="paint0_linear_12_422" x1="10" y1="14.9725" x2="10" y2="17.2634" gradientUnits="userSpaceOnUse">
<stop offset="0.435" stop-color="#382010"/>
<stop offset="1" stop-color="#B0622B"/>
</linearGradient>
<linearGradient id="paint1_linear_12_422" x1="10" y1="13.9396" x2="10" y2="16.0671" gradientUnits="userSpaceOnUse">
<stop offset="0.441" stop-color="#999998"/>
<stop offset="0.653" stop-color="#C1C1C0"/>
<stop offset="0.88" stop-color="#E5E5E5"/>
<stop offset="1" stop-color="#F3F3F3"/>
</linearGradient>
<linearGradient id="paint2_linear_12_422" x1="3.95792" y1="2.54917" x2="15.7229" y2="15.0296" gradientUnits="userSpaceOnUse">
<stop stop-color="#7DD8F3"/>
<stop offset="1" stop-color="#45B0D0"/>
</linearGradient>
</defs>
</svg>
